<svg width="50" height="50" viewBox="0 0 50 50" fill="none" xmlns="http://www.w3.org/2000/svg">
<g id="Frame" clip-path="url(#clip0_1_1183)">
<path id="Vector" d="M16.6666 39.5834V10.4167H23.9583C25.1894 10.4167 26.4085 10.6592 27.5459 11.1303C28.6834 11.6015 29.7169 12.292 30.5874 13.1626C31.458 14.0331 32.1485 15.0666 32.6197 16.204C33.0908 17.3415 33.3333 18.5605 33.3333 19.7917C33.3333 21.0228 33.0908 22.2419 32.6197 23.3793C32.1485 24.5168 31.458 25.5503 30.5874 26.4208C29.7169 27.2914 28.6834 27.9819 27.5459 28.4531C26.4085 28.9242 25.1894 29.1667 23.9583 29.1667H16.6666" stroke="white" stroke-width="2" stroke-linecap="round" stroke-linejoin="round"/>
<path id="Vector_2" d="M37.5 16.6667H12.5" stroke="white" stroke-width="2" stroke-linecap="round" stroke-linejoin="round"/>
<path id="Vector_3" d="M37.5 22.9167H12.5" stroke="white" stroke-width="2" stroke-linecap="round" stroke-linejoin="round"/>
</g>
<defs>
<clipPath id="clip0_1_1183">
<rect width="50" height="50" fill="white"/>
</clipPath>
</defs>
</svg>
