<svg width="50" height="50" viewBox="0 0 50 50" fill="none" xmlns="http://www.w3.org/2000/svg">
<g id="Frame" clip-path="url(#clip0_1_1198)">
<path id="Vector" d="M6.25 37.5L13.0812 13.5917C13.1747 13.2654 13.3718 12.9785 13.6428 12.7742C13.9138 12.57 14.244 12.4595 14.5833 12.4595C14.9227 12.4595 15.2528 12.57 15.5238 12.7742C15.7948 12.9785 15.992 13.2654 16.0854 13.5917L22.9167 37.5" stroke="white" stroke-width="2" stroke-linecap="round" stroke-linejoin="round"/>
<path id="Vector_2" d="M43.75 12.5H35.4166C33.759 12.5 32.1693 13.1585 30.9972 14.3306C29.8251 15.5027 29.1666 17.0924 29.1666 18.75C29.1666 20.4076 29.8251 21.9973 30.9972 23.1694C32.1693 24.3415 33.759 25 35.4166 25H37.5C39.1576 25 40.7473 25.6585 41.9194 26.8306C43.0915 28.0027 43.75 29.5924 43.75 31.25C43.75 32.9076 43.0915 34.4973 41.9194 35.6694C40.7473 36.8415 39.1576 37.5 37.5 37.5H29.1666" stroke="white" stroke-width="2" stroke-linecap="round" stroke-linejoin="round"/>
<path id="Vector_3" d="M35.4166 41.6667V37.5" stroke="white" stroke-width="2" stroke-linecap="round" stroke-linejoin="round"/>
<path id="Vector_4" d="M37.5 12.5V8.33331" stroke="white" stroke-width="2" stroke-linecap="round" stroke-linejoin="round"/>
<path id="Vector_5" d="M9.375 29.1667H19.7917" stroke="white" stroke-width="2" stroke-linecap="round" stroke-linejoin="round"/>
</g>
<defs>
<clipPath id="clip0_1_1198">
<rect width="50" height="50" fill="white"/>
</clipPath>
</defs>
</svg>
