<svg width="50" height="50" viewBox="0 0 50 50" fill="none" xmlns="http://www.w3.org/2000/svg">
<g id="Frame" clip-path="url(#clip0_1_1172)">
<path id="Vector" d="M12.5 12.5H29.1667C30.8243 12.5 32.414 13.1585 33.5861 14.3306C34.7582 15.5027 35.4167 17.0924 35.4167 18.75C35.4167 20.4076 34.7582 21.9973 33.5861 23.1694C32.414 24.3415 30.8243 25 29.1667 25C30.8243 25 32.414 25.6585 33.5861 26.8306C34.7582 28.0027 35.4167 29.5924 35.4167 31.25C35.4167 32.9076 34.7582 34.4973 33.5861 35.6694C32.414 36.8415 30.8243 37.5 29.1667 37.5H12.5" stroke="white" stroke-width="2" stroke-linecap="round" stroke-linejoin="round"/>
<path id="Vector_2" d="M16.6666 12.5V37.5" stroke="white" stroke-width="2" stroke-linecap="round" stroke-linejoin="round"/>
<path id="Vector_3" d="M16.6666 25H29.1666" stroke="white" stroke-width="2" stroke-linecap="round" stroke-linejoin="round"/>
<path id="Vector_4" d="M18.75 6.25V12.5" stroke="white" stroke-width="2" stroke-linecap="round" stroke-linejoin="round"/>
<path id="Vector_5" d="M27.0834 6.25V12.5" stroke="white" stroke-width="2" stroke-linecap="round" stroke-linejoin="round"/>
<path id="Vector_6" d="M18.75 37.5V43.75" stroke="white" stroke-width="2" stroke-linecap="round" stroke-linejoin="round"/>
<path id="Vector_7" d="M27.0834 37.5V43.75" stroke="white" stroke-width="2" stroke-linecap="round" stroke-linejoin="round"/>
</g>
<defs>
<clipPath id="clip0_1_1172">
<rect width="50" height="50" fill="white"/>
</clipPath>
</defs>
</svg>
