<svg width="50" height="50" viewBox="0 0 50 50" fill="none" xmlns="http://www.w3.org/2000/svg">
<g id="Frame" clip-path="url(#clip0_1_1143)">
<path id="Vector" d="M34.4941 16.0715C34.0794 14.8949 33.3221 13.8693 32.3197 13.1267C31.3172 12.3842 30.1155 11.9586 28.8691 11.9048H20.5358C18.8782 11.9048 17.2885 12.5633 16.1163 13.7354C14.9442 14.9075 14.2858 16.4972 14.2858 18.1548C14.2858 19.8124 14.9442 21.4021 16.1163 22.5742C17.2885 23.7463 18.8782 24.4048 20.5358 24.4048H28.8691C30.5267 24.4048 32.1164 25.0633 33.2885 26.2354C34.4606 27.4075 35.1191 28.9972 35.1191 30.6548C35.1191 32.3124 34.4606 33.9021 33.2885 35.0742C32.1164 36.2463 30.5267 36.9048 28.8691 36.9048H20.5358C19.2894 36.851 18.0877 36.4254 17.0852 35.6828C16.0827 34.9403 15.3254 33.9147 14.9108 32.7381" stroke="white" stroke-width="3.5" stroke-linecap="round" stroke-linejoin="round"/>
<path id="Vector_2" d="M25 5.95239V12.2024M25 37.2024V43.4524" stroke="white" stroke-width="3.5" stroke-linecap="round" stroke-linejoin="round"/>
</g>
<defs>
<clipPath id="clip0_1_1143">
<rect width="50" height="50" fill="white"/>
</clipPath>
</defs>
</svg>
