<svg width="50" height="50" viewBox="0 0 50 50" fill="none" xmlns="http://www.w3.org/2000/svg">
<g id="Frame" clip-path="url(#clip0_1_1166)">
<path id="Vector" d="M35.8334 14.5834C34.0752 12.5736 31.8476 11.2142 29.4299 10.6756C27.0122 10.1369 24.512 10.443 22.2428 11.5554C19.9736 12.6679 18.0364 14.5372 16.6742 16.9289C15.3119 19.3207 14.5852 22.1284 14.5852 25C14.5852 27.8717 15.3119 30.6794 16.6742 33.0711C18.0364 35.4629 19.9736 37.3322 22.2428 38.4446C24.512 39.5571 27.0122 39.8632 29.4299 39.3245C31.8476 38.7858 34.0752 37.4264 35.8334 35.4167" stroke="white" stroke-width="2" stroke-linecap="round" stroke-linejoin="round"/>
<path id="Vector_2" d="M27.0833 20.8333H10.4166M10.4166 29.1666H27.0833" stroke="white" stroke-width="2" stroke-linecap="round" stroke-linejoin="round"/>
</g>
<defs>
<clipPath id="clip0_1_1166">
<rect width="50" height="50" fill="white"/>
</clipPath>
</defs>
</svg>
