<svg width="49" height="49" viewBox="0 0 49 49" fill="none" xmlns="http://www.w3.org/2000/svg">
<g id="Frame" clip-path="url(#clip0_1_1149)">
<path id="Vector" d="M29.0938 39.8125V30.625C29.0938 30.2189 28.9324 29.8294 28.6453 29.5422C28.3581 29.2551 27.9686 29.0937 27.5625 29.0937H21.4375C21.0314 29.0937 20.6419 29.2551 20.3547 29.5422C20.0676 29.8294 19.9062 30.2189 19.9062 30.625V39.8125C19.9062 40.2186 19.7449 40.6081 19.4578 40.8952C19.1706 41.1824 18.7811 41.3437 18.375 41.3437H9.1875C8.78139 41.3437 8.39191 41.1824 8.10474 40.8952C7.81758 40.6081 7.65625 40.2186 7.65625 39.8125V22.1074C7.65968 21.8955 7.70547 21.6864 7.79094 21.4925C7.87641 21.2985 7.99982 21.1236 8.15391 20.9781L23.4664 7.06287C23.7487 6.80463 24.1174 6.66141 24.5 6.66141C24.8826 6.66141 25.2513 6.80463 25.5336 7.06287L40.8461 20.9781C41.0002 21.1236 41.1236 21.2985 41.2091 21.4925C41.2945 21.6864 41.3403 21.8955 41.3438 22.1074V39.8125C41.3438 40.2186 41.1824 40.6081 40.8953 40.8952C40.6081 41.1824 40.2186 41.3437 39.8125 41.3437H30.625C30.2189 41.3437 29.8294 41.1824 29.5422 40.8952C29.2551 40.6081 29.0938 40.2186 29.0938 39.8125Z" stroke="white" stroke-width="1.53125" stroke-linecap="round" stroke-linejoin="round"/>
</g>
<defs>
<clipPath id="clip0_1_1149">
<rect width="49" height="49" fill="white"/>
</clipPath>
</defs>
</svg>
