<svg width="50" height="50" viewBox="0 0 50 50" fill="none" xmlns="http://www.w3.org/2000/svg">
<g id="Frame" clip-path="url(#clip0_1_1154)">
<path id="Vector" d="M35.4167 38.5416C33.7825 39.2907 32.006 39.6784 30.2083 39.6784C28.4107 39.6784 26.6342 39.2907 25 38.5416C23.2916 37.9519 21.4757 37.7396 19.6774 37.9195C17.879 38.0993 16.1411 38.667 14.5833 39.5833C15.6988 39.1972 16.6821 38.5032 17.4195 37.5814C18.1569 36.6597 18.6182 35.548 18.75 34.375V18.75C18.761 16.9248 19.3709 15.1538 20.486 13.7088C21.6011 12.2639 23.1598 11.2251 24.9225 10.7518C26.6853 10.2786 28.5547 10.3972 30.2435 11.0894C31.9324 11.7816 33.3472 13.0091 34.2708 14.5833M28.9583 27.0833H14.375" stroke="white" stroke-width="2" stroke-linecap="round" stroke-linejoin="round"/>
</g>
<defs>
<clipPath id="clip0_1_1154">
<rect width="50" height="50" fill="white"/>
</clipPath>
</defs>
</svg>
